<svg xmlns="http://www.w3.org/2000/svg" width="440" height="270" viewBox="0 0 440 270" role="img"><title>Languages</title><desc>Share of code bytes · not a measure of proficiency</desc><rect x="1" y="1" width="438" height="268" rx="14" fill="#0d1117" stroke="#30363d"/><g font-family="Arial, sans-serif"><text x="24" y="37" font-size="19" font-weight="700" fill="#f0f6fc">Languages</text><text x="24" y="59" font-size="11" fill="#9da7b3">Owned public repositories · forks excluded</text><rect x="24.000" y="74" width="253.671" height="10" fill="#60a5fa"/><circle cx="29" cy="101" r="4" fill="#60a5fa"/><text x="40" y="105" font-size="12" fill="#c9d1d9">Jupyter Notebook</text><text x="415" y="105" text-anchor="end" font-size="12" fill="#c9d1d9">64.7%</text><rect x="277.671" y="74" width="70.360" height="10" fill="#4ade80"/><circle cx="29" cy="118" r="4" fill="#4ade80"/><text x="40" y="122" font-size="12" fill="#c9d1d9">Java</text><text x="415" y="122" text-anchor="end" font-size="12" fill="#c9d1d9">17.9%</text><rect x="348.032" y="74" width="37.036" height="10" fill="#fbbf24"/><circle cx="29" cy="135" r="4" fill="#fbbf24"/><text x="40" y="139" font-size="12" fill="#c9d1d9">Vue</text><text x="415" y="139" text-anchor="end" font-size="12" fill="#c9d1d9">9.4%</text><rect x="385.067" y="74" width="18.978" height="10" fill="#c084fc"/><circle cx="29" cy="152" r="4" fill="#c084fc"/><text x="40" y="156" font-size="12" fill="#c9d1d9">TypeScript</text><text x="415" y="156" text-anchor="end" font-size="12" fill="#c9d1d9">4.8%</text><rect x="404.046" y="74" width="3.538" height="10" fill="#fb7185"/><circle cx="29" cy="169" r="4" fill="#fb7185"/><text x="40" y="173" font-size="12" fill="#c9d1d9">HTML</text><text x="415" y="173" text-anchor="end" font-size="12" fill="#c9d1d9">0.9%</text><rect x="407.583" y="74" width="3.516" height="10" fill="#2dd4bf"/><circle cx="29" cy="186" r="4" fill="#2dd4bf"/><text x="40" y="190" font-size="12" fill="#c9d1d9">JavaScript</text><text x="415" y="190" text-anchor="end" font-size="12" fill="#c9d1d9">0.9%</text><rect x="411.099" y="74" width="4.901" height="10" fill="#94a3b8"/><circle cx="29" cy="203" r="4" fill="#94a3b8"/><text x="40" y="207" font-size="12" fill="#c9d1d9">Others</text><text x="415" y="207" text-anchor="end" font-size="12" fill="#c9d1d9">1.3%</text><text x="24" y="238" font-size="10" fill="#9da7b3">Share of code bytes · not a measure of proficiency</text><text x="24" y="255" font-size="10" fill="#9da7b3">Updated 2026-09-14 UTC</text></g></svg>
